<?xml version="1.0" encoding="UTF-8" standalone="no"?>
<svg width="22px" height="22px" viewBox="0 0 22 22" version="1.1" xmlns="http://www.w3.org/2000/svg" xmlns:xlink="http://www.w3.org/1999/xlink">
    <!-- Generator: sketchtool 49 (51002) - http://www.bohemiancoding.com/sketch -->
    <title>220C7485-A608-4E24-94B8-27BD29F4F0E5</title>
    <desc>Created with sketchtool.</desc>
    <defs></defs>
    <g id="Page-1" stroke="none" stroke-width="1" fill="none" fill-rule="evenodd">
        <g id="Game-ui-hovers" transform="translate(-779.000000, -318.000000)" fill="#FFFFFF">
            <g id="help" transform="translate(779.000000, 318.000000)">
                <path d="M11,0 C4.935,0 0,4.935 0,11 C0,17.065 4.935,22 11,22 C17.065,22 22,17.065 22,11 C22,4.935 17.065,0 11,0 M11,1 C16.523,1 21,5.477 21,11 C21,16.523 16.523,21 11,21 C5.477,21 1,16.523 1,11 C1,5.477 5.477,1 11,1" id="Fill-256"></path>
                <path d="M10.5,15.0459 C10.224,15.0459 10,14.8679 10,14.5909 L10,14.0769 C10,12.1689 11.144,11.6289 12.062,11.1959 C12.976,10.7649 13.635,10.4539 13.635,9.0289 C13.635,7.6339 12.319,6.4999 10.702,6.4999 C9.085,6.4999 7.769,7.6339 7.769,9.0289 C7.769,9.3049 7.545,9.5289 7.269,9.5289 C6.993,9.5289 6.769,9.3049 6.769,9.0289 C6.769,7.0829 8.533,5.4999 10.702,5.4999 C12.871,5.4999 14.635,7.0829 14.635,9.0289 C14.635,11.0879 13.445,11.6499 12.489,12.0999 C11.625,12.5079 11,12.8029 11,14.0769 L10.992,14.5909 C10.95,14.8329 10.746,15.0459 10.5,15.0459" id="Fill-258"></path>
                <path d="M10.5,17.5 C10.37,17.5 10.24,17.45 10.15,17.35 C10.05,17.26 10,17.13 10,17 C10,16.87 10.05,16.74 10.15,16.65 C10.34,16.46 10.66,16.46 10.85,16.64 C10.95,16.74 11,16.87 11,17 C11,17.13 10.95,17.26 10.85,17.35 C10.76,17.45 10.63,17.5 10.5,17.5" id="Fill-260"></path>
            </g>
        </g>
    </g>
</svg>