<?xml version="1.0" encoding="UTF-8" standalone="no"?>
<svg width="22px" height="20px" viewBox="0 0 22 20" version="1.1" xmlns="http://www.w3.org/2000/svg" xmlns:xlink="http://www.w3.org/1999/xlink">
    <!-- Generator: sketchtool 49 (51002) - http://www.bohemiancoding.com/sketch -->
    <title>52E22E03-4658-414B-970D-081CD2739951</title>
    <desc>Created with sketchtool.</desc>
    <defs></defs>
    <g id="Page-1" stroke="none" stroke-width="1" fill="none" fill-rule="evenodd">
        <g id="Game-ui-hovers" transform="translate(-779.000000, -237.000000)" fill="#FFFFFF">
            <g id="provablyfair" transform="translate(779.000000, 237.000000)">
                <path d="M1.5503,13 C1.7823,14.14 2.7923,15 4.0003,15 C5.2073,15 6.2173,14.14 6.4493,13 L1.5503,13 Z M4.0003,16 C2.0703,16 0.5003,14.43 0.5003,12.5 L0.5003,12 L7.5003,12 L7.5003,12.5 C7.5003,14.43 5.9293,16 4.0003,16 Z" id="Fill-368"></path>
                <path d="M15.5503,11 C15.7823,12.14 16.7923,13 18.0003,13 C19.2073,13 20.2173,12.14 20.4493,11 L15.5503,11 Z M18.0003,14 C16.0703,14 14.5003,12.43 14.5003,10.5 L14.5003,10 L21.5003,10 L21.5003,10.5 C21.5003,12.43 19.9293,14 18.0003,14 Z" id="Fill-370"></path>
                <path d="M7,12.5 C6.806,12.5 6.622,12.387 6.541,12.197 L4,6.27 L1.459,12.197 C1.351,12.45 1.056,12.568 0.803,12.46 C0.549,12.351 0.432,12.057 0.541,11.803 L3.541,4.803 C3.698,4.436 4.302,4.436 4.459,4.803 L7.459,11.803 C7.568,12.057 7.451,12.351 7.197,12.46 C7.133,12.487 7.066,12.5 7,12.5" id="Fill-372"></path>
                <path d="M21,10.5 C20.806,10.5 20.622,10.387 20.541,10.197 L18,4.27 L15.459,10.197 C15.351,10.451 15.055,10.567 14.803,10.46 C14.549,10.351 14.432,10.057 14.541,9.803 L17.541,2.803 C17.698,2.436 18.302,2.436 18.459,2.803 L21.459,9.803 C21.568,10.057 21.451,10.351 21.197,10.46 C21.133,10.487 21.066,10.5 21,10.5" id="Fill-374"></path>
                <path d="M12.6685,2.7432 C12.4255,2.7432 12.2125,2.5662 12.1745,2.3192 C12.1325,2.0462 12.3195,1.7912 12.5925,1.7492 L17.3135,1.0232 C17.5895,0.9792 17.8415,1.1692 17.8835,1.4412 C17.9255,1.7152 17.7385,1.9702 17.4655,2.0122 L12.7455,2.7372 C12.7195,2.7412 12.6935,2.7432 12.6685,2.7432" id="Fill-376"></path>
                <path d="M4.6045,3.9844 C4.3615,3.9844 4.1485,3.8074 4.1105,3.5604 C4.0685,3.2874 4.2555,3.0324 4.5285,2.9904 L9.4235,2.2374 C9.6985,2.1964 9.9515,2.3824 9.9935,2.6554 C10.0355,2.9284 9.8485,3.1834 9.5755,3.2254 L4.6815,3.9784 C4.6555,3.9824 4.6295,3.9844 4.6045,3.9844" id="Fill-378"></path>
                <path d="M10.9478,17 C10.6718,17 10.4478,16.776 10.4478,16.5 L10.4478,3.5 C10.4478,3.224 10.6718,3 10.9478,3 C11.2238,3 11.4478,3.224 11.4478,3.5 L11.4478,16.5 C11.4478,16.776 11.2238,17 10.9478,17" id="Fill-380"></path>
                <path d="M8.5503,19 L13.4493,19 C13.2173,17.86 12.2073,17 11.0003,17 C9.7923,17 8.7823,17.86 8.5503,19 Z M14.5003,20 L7.5003,20 L7.5003,19.5 C7.5003,17.57 9.0703,16 11.0003,16 C12.9293,16 14.5003,17.57 14.5003,19.5 L14.5003,20 Z" id="Fill-382"></path>
                <path d="M15.5,20 L6.5,20 C6.224,20 6,19.776 6,19.5 C6,19.224 6.224,19 6.5,19 L15.5,19 C15.776,19 16,19.224 16,19.5 C16,19.776 15.776,20 15.5,20" id="Fill-384"></path>
                <path d="M11,1 C10.733,1 10.482,1.104 10.293,1.293 C9.903,1.683 9.903,2.317 10.293,2.707 C10.671,3.084 11.329,3.084 11.707,2.707 C12.097,2.317 12.097,1.683 11.707,1.293 C11.518,1.104 11.267,1 11,1 M11,4 C10.466,4 9.963,3.792 9.586,3.414 C8.806,2.635 8.806,1.366 9.586,0.586 C10.341,-0.17 11.659,-0.17 12.414,0.586 C13.194,1.365 13.194,2.635 12.414,3.414 C12.037,3.792 11.534,4 11,4" id="Fill-386"></path>
                <path d="M18.5,1 C18.372,1 18.244,1.049 18.146,1.146 C17.952,1.342 17.952,1.658 18.146,1.854 C18.342,2.049 18.658,2.049 18.854,1.854 C19.048,1.658 19.048,1.342 18.854,1.146 C18.756,1.049 18.628,1 18.5,1 M18.5,2.999 C18.116,2.999 17.732,2.853 17.439,2.561 C16.854,1.976 16.854,1.024 17.439,0.439 C18.024,-0.145 18.976,-0.145 19.561,0.439 C20.146,1.024 20.146,1.976 19.561,2.561 C19.268,2.853 18.884,2.999 18.5,2.999" id="Fill-388"></path>
                <path d="M3.5,3 C3.372,3 3.244,3.049 3.146,3.146 C2.952,3.342 2.952,3.658 3.146,3.854 C3.342,4.049 3.658,4.049 3.854,3.854 C4.048,3.658 4.048,3.342 3.854,3.146 C3.756,3.049 3.628,3 3.5,3 M3.5,4.999 C3.116,4.999 2.732,4.853 2.439,4.561 C1.854,3.976 1.854,3.024 2.439,2.439 C3.024,1.855 3.976,1.855 4.561,2.439 C5.146,3.024 5.146,3.976 4.561,4.561 C4.268,4.853 3.884,4.999 3.5,4.999" id="Fill-390"></path>
            </g>
        </g>
    </g>
</svg>