<?xml version="1.0" encoding="UTF-8" standalone="no"?>
<svg width="22px" height="19px" viewBox="0 0 22 19" version="1.1" xmlns="http://www.w3.org/2000/svg" xmlns:xlink="http://www.w3.org/1999/xlink">
    <!-- Generator: sketchtool 49 (51002) - http://www.bohemiancoding.com/sketch -->
    <title>EA998423-0BAF-4683-AD52-81941162D2C8</title>
    <desc>Created with sketchtool.</desc>
    <defs></defs>
    <g id="Page-1" stroke="none" stroke-width="1" fill="none" fill-rule="evenodd">
        <g id="Game-ui-hovers" transform="translate(-780.000000, -115.000000)" fill="#FFFFFF">
            <g id="volume" transform="translate(780.000000, 115.000000)">
                <path d="M7.33333333,12.8200286 L14.4058095,17.6830762 L14.6666667,17.5458381 L14.6666667,1.31193333 L14.4058095,1.17469524 L7.33333333,6.03669524 L7.33333333,12.8200286 Z M14.3701905,18.8176476 C14.2664762,18.8176476 14.1627619,18.786219 14.0737143,18.7254571 L6.51304762,13.5271714 C6.37057143,13.4286952 6.28571429,13.2684095 6.28571429,13.0955524 L6.28571429,5.76221905 C6.28571429,5.5893619 6.37057143,5.42802857 6.51304762,5.3306 L14.0737143,0.132314286 C14.234,0.0212666667 14.4414286,0.0086952381 14.6142857,0.0998380952 L15.4345714,0.532504762 C15.606381,0.621552381 15.7142857,0.800695238 15.7142857,0.995552381 L15.7142857,17.8611714 C15.7142857,18.0560286 15.606381,18.2351714 15.4345714,18.3252667 L14.6142857,18.7568857 C14.5367619,18.7977429 14.4529524,18.8176476 14.3701905,18.8176476 Z" id="Fill-486"></path>
                <path d="M3.66666667,12.5714286 C2.0952381,12.5714286 0.470380952,11.4274286 0.470380952,9.51447619 L0.470380952,9.34266667 C0.470380952,7.42971429 2.0952381,6.28571429 3.66666667,6.28571429 C3.95580952,6.28571429 4.19047619,6.52038095 4.19047619,6.80952381 C4.19047619,7.09866667 3.95580952,7.33333333 3.66666667,7.33333333 C2.77409524,7.33333333 1.518,7.95666667 1.518,9.34266667 L1.518,9.51447619 C1.518,10.9004762 2.77409524,11.5238095 3.66666667,11.5238095 C3.95580952,11.5238095 4.19047619,11.7584762 4.19047619,12.047619 C4.19047619,12.3367619 3.95580952,12.5714286 3.66666667,12.5714286" id="Fill-488"></path>
                <path d="M19.4054667,15.7061143 C19.2860381,15.7061143 19.1655619,15.6652571 19.0681333,15.5824952 C18.8470857,15.3949714 18.8188,15.0649714 19.0063238,14.8439238 C20.2613714,13.3604952 20.9528,11.370019 20.9528,9.24335238 C20.9528,7.06430476 20.1943238,4.96801905 18.8743238,3.49192381 C18.6815619,3.2771619 18.700419,2.94506667 18.915181,2.75230476 C19.1320381,2.55954286 19.4630857,2.57944762 19.6548,2.79420952 C21.1455619,4.45992381 22.000419,6.80973333 22.000419,9.24335238 C22.000419,11.6183048 21.2209905,13.8476381 19.8056571,15.5206857 C19.7019429,15.6422095 19.5542286,15.7061143 19.4054667,15.7061143" id="Fill-490"></path>
                <path d="M17.8770952,12.5785524 C17.7576667,12.5785524 17.6371905,12.5376952 17.5397619,12.4549333 C17.3187143,12.2674095 17.2904286,11.9374095 17.4779524,11.7163619 C18.0394762,11.053219 18.3485238,10.1596 18.3485238,9.20102857 C18.3485238,8.21940952 18.0090952,7.2776 17.4192857,6.61864762 C17.2265238,6.4028381 17.2443333,6.07179048 17.4601429,5.87798095 C17.677,5.68731429 18.0080476,5.70512381 18.1997619,5.92093333 C18.9708095,6.78207619 19.3961429,7.94702857 19.3961429,9.20102857 C19.3961429,10.4078857 18.9990952,11.5414095 18.2772857,12.3931238 C18.1735714,12.5146476 18.0258571,12.5785524 17.8770952,12.5785524" id="Fill-492"></path>
                <path d="M4.19047619,12.5714286 L6.28571429,12.5714286 L6.28571429,6.28571429 L4.19047619,6.28571429 L4.19047619,12.5714286 Z M6.80952381,13.6190476 L3.66666667,13.6190476 C3.37752381,13.6190476 3.14285714,13.384381 3.14285714,13.0952381 L3.14285714,5.76190476 C3.14285714,5.4727619 3.37752381,5.23809524 3.66666667,5.23809524 L6.80952381,5.23809524 C7.09866667,5.23809524 7.33333333,5.4727619 7.33333333,5.76190476 L7.33333333,13.0952381 C7.33333333,13.384381 7.09866667,13.6190476 6.80952381,13.6190476 Z" id="Fill-494"></path>
            </g>
        </g>
    </g>
</svg>